<svg xmlns="http://www.w3.org/2000/svg" xmlns:xlink="http://www.w3.org/1999/xlink" width="2000" zoomAndPan="magnify" viewBox="0 0 1500 1499.999933" height="2000" preserveAspectRatio="xMidYMid meet" version="1.0"><defs><clipPath id="416dd22617"><path d="M 44 1101 L 1455 1101 L 1455 1213.707031 L 44 1213.707031 Z M 44 1101 " clip-rule="nonzero"/></clipPath><clipPath id="ceac7d117d"><path d="M 688 285.957031 L 1029 285.957031 L 1029 852 L 688 852 Z M 688 285.957031 " clip-rule="nonzero"/></clipPath><clipPath id="a8b6c632f6"><path d="M 1100 285.957031 L 1442 285.957031 L 1442 885 L 1100 885 Z M 1100 285.957031 " clip-rule="nonzero"/></clipPath></defs><path fill="#9b4819" d="M 1432.152344 910.257812 C 1427.964844 910.257812 1423.777344 909.058594 1419.890625 906.667969 C 1413.015625 902.484375 1405.539062 897.398438 1397.765625 892.019531 C 1344.546875 855.839844 1297.003906 828.03125 1253.652344 855.242188 L 1225.246094 872.882812 C 1188.171875 896.203125 1129.867188 896.203125 1092.792969 872.882812 L 1064.386719 855.242188 C 1041.964844 841.1875 1003.09375 841.1875 980.667969 855.242188 L 952.265625 872.882812 C 915.191406 896.203125 856.886719 896.203125 819.8125 872.882812 L 791.40625 855.242188 C 768.980469 841.1875 730.113281 841.1875 707.6875 855.242188 L 679.285156 872.882812 C 642.207031 896.203125 583.90625 896.203125 546.828125 872.882812 L 518.425781 855.242188 C 496 841.1875 457.128906 841.1875 434.707031 855.242188 L 406.300781 872.882812 C 369.226562 896.203125 310.921875 896.203125 273.847656 872.882812 L 245.441406 855.242188 C 202.089844 828.332031 154.546875 855.839844 101.328125 892.019531 C 93.554688 897.398438 86.078125 902.183594 79.203125 906.667969 C 68.4375 913.246094 54.386719 910.257812 47.507812 899.492188 C 40.632812 888.730469 43.921875 874.675781 54.683594 867.800781 C 60.964844 863.914062 67.839844 859.128906 75.316406 854.046875 C 123.753906 821.15625 197.304688 771.222656 269.363281 816.074219 L 297.765625 833.714844 C 320.191406 847.765625 359.0625 847.765625 381.484375 833.714844 L 409.890625 816.074219 C 446.964844 792.75 505.269531 792.75 542.34375 816.074219 L 570.75 833.714844 C 593.171875 847.765625 632.042969 847.765625 654.46875 833.714844 L 682.871094 816.074219 C 719.945312 792.75 778.25 792.75 815.324219 816.074219 L 843.730469 833.714844 C 866.15625 847.765625 905.023438 847.765625 927.449219 833.714844 L 955.851562 816.074219 C 992.929688 792.75 1051.230469 792.75 1088.308594 816.074219 L 1116.710938 833.714844 C 1139.136719 847.765625 1178.003906 847.765625 1200.429688 833.714844 L 1228.835938 816.074219 C 1300.890625 770.925781 1374.445312 820.855469 1422.882812 854.046875 C 1430.355469 859.128906 1437.234375 863.914062 1443.511719 867.800781 C 1454.277344 874.378906 1457.566406 888.730469 1450.6875 899.492188 C 1447.398438 906.371094 1439.925781 910.257812 1432.152344 910.257812 Z M 1432.152344 910.257812 " fill-opacity="1" fill-rule="nonzero"/><path fill="#9b4819" d="M 68.738281 1062.144531 C 60.964844 1062.144531 53.488281 1058.257812 49.300781 1051.382812 C 42.726562 1040.617188 45.714844 1026.566406 56.476562 1019.6875 C 62.757812 1015.800781 69.632812 1011.015625 77.109375 1005.933594 C 125.546875 973.046875 199.097656 923.113281 271.15625 967.960938 L 299.5625 985.601562 C 321.984375 999.65625 360.855469 999.65625 383.277344 985.601562 L 411.683594 967.960938 C 448.757812 944.640625 507.0625 944.640625 544.136719 967.960938 L 572.542969 985.601562 C 594.96875 999.65625 633.835938 999.65625 656.261719 985.601562 L 684.664062 967.960938 C 721.742188 944.640625 780.042969 944.640625 817.121094 967.960938 L 845.523438 985.601562 C 867.949219 999.65625 906.816406 999.65625 929.242188 985.601562 L 957.648438 967.960938 C 994.722656 944.640625 1052.726562 944.640625 1090.101562 967.960938 L 1118.507812 985.601562 C 1140.929688 999.65625 1179.800781 999.65625 1202.222656 985.601562 L 1230.628906 967.960938 C 1302.6875 922.8125 1376.238281 972.746094 1424.675781 1005.933594 C 1432.152344 1011.015625 1439.027344 1015.800781 1445.304688 1019.6875 C 1456.070312 1026.265625 1459.359375 1040.617188 1452.480469 1051.382812 C 1445.90625 1062.144531 1431.554688 1065.433594 1420.789062 1058.558594 C 1413.914062 1054.371094 1406.4375 1049.289062 1398.664062 1043.90625 C 1345.441406 1007.726562 1297.902344 979.921875 1254.546875 1007.128906 L 1226.144531 1024.769531 C 1189.070312 1048.09375 1130.765625 1048.09375 1093.6875 1024.769531 L 1065.285156 1007.128906 C 1042.859375 993.078125 1003.992188 993.078125 981.566406 1007.128906 L 953.160156 1024.769531 C 916.085938 1048.09375 857.78125 1048.09375 820.707031 1024.769531 L 792.304688 1007.128906 C 769.878906 993.078125 731.007812 993.078125 708.585938 1007.128906 L 680.179688 1024.769531 C 643.105469 1048.09375 584.800781 1048.09375 547.726562 1024.769531 L 519.320312 1007.128906 C 496.898438 993.078125 458.027344 993.078125 435.601562 1007.128906 L 407.199219 1024.769531 C 370.125 1048.09375 311.820312 1048.09375 274.746094 1024.769531 L 246.339844 1007.128906 C 202.984375 980.222656 155.445312 1007.726562 102.222656 1043.90625 C 94.449219 1049.289062 86.976562 1054.074219 80.097656 1058.558594 C 77.109375 1060.949219 72.921875 1062.144531 68.738281 1062.144531 Z M 68.738281 1062.144531 " fill-opacity="1" fill-rule="nonzero"/><g clip-path="url(#416dd22617)"><path fill="#9b4819" d="M 1432.152344 1214.035156 C 1427.964844 1214.035156 1423.777344 1212.839844 1419.890625 1210.445312 C 1413.015625 1206.261719 1405.539062 1201.175781 1397.765625 1195.796875 C 1344.546875 1159.617188 1297.003906 1131.8125 1253.652344 1159.019531 L 1225.246094 1176.660156 C 1188.171875 1199.980469 1129.867188 1199.980469 1092.792969 1176.660156 L 1064.386719 1159.019531 C 1041.964844 1144.96875 1003.09375 1144.96875 980.667969 1159.019531 L 952.265625 1176.660156 C 915.191406 1199.980469 856.886719 1199.980469 819.8125 1176.660156 L 791.40625 1159.019531 C 768.980469 1144.96875 730.113281 1144.96875 707.6875 1159.019531 L 679.285156 1176.660156 C 642.207031 1199.980469 583.90625 1199.980469 546.828125 1176.660156 L 518.425781 1159.019531 C 496 1144.96875 457.128906 1144.96875 434.707031 1159.019531 L 406.300781 1176.660156 C 369.226562 1199.980469 310.921875 1199.980469 273.847656 1176.660156 L 245.441406 1159.019531 C 202.089844 1132.109375 154.546875 1159.617188 101.328125 1195.796875 C 93.554688 1201.175781 86.078125 1205.960938 79.203125 1210.445312 C 68.4375 1217.023438 54.386719 1214.035156 47.507812 1203.269531 C 40.929688 1192.507812 43.921875 1178.453125 54.683594 1171.578125 C 60.964844 1167.691406 67.839844 1162.90625 75.316406 1157.824219 C 123.753906 1124.933594 197.304688 1075.003906 269.363281 1119.851562 L 297.765625 1137.492188 C 320.191406 1151.542969 359.0625 1151.542969 381.484375 1137.492188 L 409.890625 1119.851562 C 446.964844 1096.53125 504.96875 1096.53125 542.34375 1119.851562 L 570.75 1137.492188 C 593.171875 1151.542969 632.042969 1151.542969 654.46875 1137.492188 L 682.871094 1119.851562 C 719.945312 1096.53125 777.953125 1096.53125 815.324219 1119.851562 L 843.730469 1137.492188 C 866.15625 1151.542969 905.023438 1151.542969 927.449219 1137.492188 L 955.851562 1119.851562 C 992.929688 1096.53125 1050.933594 1096.53125 1088.308594 1119.851562 L 1116.710938 1137.492188 C 1139.136719 1151.542969 1178.003906 1151.542969 1200.429688 1137.492188 L 1228.835938 1119.851562 C 1300.890625 1074.703125 1374.445312 1124.636719 1422.882812 1157.824219 C 1430.355469 1162.90625 1437.234375 1167.691406 1443.511719 1171.578125 C 1454.277344 1178.15625 1457.566406 1192.507812 1450.6875 1203.269531 C 1447.398438 1210.148438 1439.925781 1214.035156 1432.152344 1214.035156 Z M 1432.152344 1214.035156 " fill-opacity="1" fill-rule="nonzero"/></g><g clip-path="url(#ceac7d117d)"><path fill="#9b4819" d="M 711.277344 851.652344 C 698.71875 851.652344 688.253906 841.488281 688.253906 828.632812 L 688.253906 450.402344 C 688.253906 342.464844 773.765625 285.957031 858.382812 285.957031 C 942.996094 285.957031 1028.507812 342.464844 1028.507812 450.402344 C 1028.507812 462.960938 1018.34375 473.425781 1005.484375 473.425781 C 992.628906 473.425781 982.464844 463.261719 982.464844 450.402344 C 982.464844 368.777344 918.179688 331.703125 858.382812 331.703125 C 798.582031 331.703125 734 369.078125 734 450.402344 L 734 828.632812 C 734 841.488281 723.832031 851.652344 711.277344 851.652344 Z M 711.277344 851.652344 " fill-opacity="1" fill-rule="nonzero"/></g><g clip-path="url(#a8b6c632f6)"><path fill="#9b4819" d="M 1123.886719 884.84375 C 1111.328125 884.84375 1100.867188 874.675781 1100.867188 861.820312 L 1100.867188 450.402344 C 1100.867188 342.464844 1186.378906 285.957031 1270.992188 285.957031 C 1355.609375 285.957031 1441.121094 342.464844 1441.121094 450.402344 C 1441.121094 462.960938 1430.953125 473.425781 1418.097656 473.425781 C 1405.242188 473.425781 1395.074219 463.261719 1395.074219 450.402344 C 1395.074219 368.777344 1330.792969 331.703125 1270.992188 331.703125 C 1211.195312 331.703125 1146.613281 369.078125 1146.613281 450.402344 L 1146.613281 862.117188 C 1146.613281 874.675781 1136.445312 884.84375 1123.886719 884.84375 Z M 1123.886719 884.84375 " fill-opacity="1" fill-rule="nonzero"/></g><path fill="#9b4819" d="M 1123.886719 562.824219 L 711.277344 562.824219 C 698.71875 562.824219 688.253906 552.660156 688.253906 539.800781 C 688.253906 526.945312 698.417969 516.78125 711.277344 516.78125 L 1123.886719 516.78125 C 1136.445312 516.78125 1146.910156 526.945312 1146.910156 539.800781 C 1146.910156 552.660156 1136.445312 562.824219 1123.886719 562.824219 Z M 1123.886719 562.824219 " fill-opacity="1" fill-rule="nonzero"/><path fill="#9b4819" d="M 1123.886719 702.753906 L 711.277344 702.753906 C 698.71875 702.753906 688.253906 692.589844 688.253906 679.730469 C 688.253906 666.875 698.417969 656.710938 711.277344 656.710938 L 1123.886719 656.710938 C 1136.445312 656.710938 1146.910156 666.875 1146.910156 679.730469 C 1146.910156 692.589844 1136.445312 702.753906 1123.886719 702.753906 Z M 1123.886719 702.753906 " fill-opacity="1" fill-rule="nonzero"/></svg>